<svg xmlns="http://www.w3.org/2000/svg" width="938" height="898" viewBox="0 0 938 898" version="1.1"><path d="M 435.500 20.084 C 429.450 20.595, 419.325 21.713, 413 22.568 C 406.675 23.423, 398.548 24.484, 394.941 24.925 C 374.111 27.471, 324.405 41.998, 301.500 52.233 C 296 54.691, 289.475 57.550, 287 58.586 C 281.116 61.049, 261.925 70.915, 260 72.466 C 259.175 73.131, 254.900 75.618, 250.500 77.992 C 246.100 80.367, 237.830 85.438, 232.123 89.262 C 219.362 97.813, 196 115.794, 196 117.066 C 196 117.580, 195.472 118, 194.828 118 C 193.001 118, 183.026 127.051, 165.624 144.500 C 146.474 163.701, 136.324 175.264, 126.127 189.500 C 123.369 193.350, 119.103 199.200, 116.647 202.500 C 114.191 205.800, 111.249 210.300, 110.110 212.500 C 108.970 214.700, 106.497 218.750, 104.614 221.500 C 99.486 228.988, 82.651 260.504, 79.509 268.500 C 77.996 272.350, 75.742 277.525, 74.500 280 C 72.163 284.657, 62.241 313.722, 57.601 329.500 C 53.225 344.382, 47.147 376.412, 45.267 394.500 C 42.809 418.147, 42.862 467.553, 45.367 488 C 47.418 504.740, 51.020 525.147, 54.458 539.500 C 57.199 550.942, 66.339 579.528, 72.203 595 C 83.576 625.007, 104.361 661.589, 127.882 693 C 132.618 699.325, 137.395 705.709, 138.497 707.186 C 139.598 708.663, 145.755 715.638, 152.177 722.686 C 169.371 741.555, 198.067 767.051, 217 780.283 C 222.225 783.934, 227.625 787.770, 229 788.806 C 236.678 794.591, 268.117 813.252, 277.109 817.362 C 280.074 818.718, 286.100 821.474, 290.500 823.488 C 345.810 848.808, 402.754 861, 465.697 861 C 526.626 861, 582.333 848.956, 640 823.316 C 657.299 815.624, 667.624 810.463, 673.500 806.569 C 676.250 804.746, 679.936 802.410, 681.692 801.378 C 699.059 791.161, 706.098 786.676, 708.577 784.247 C 710.184 782.672, 712.753 780.601, 714.284 779.646 C 721.621 775.069, 742.786 757.508, 754 746.692 C 788.003 713.895, 816.617 677.262, 834.604 643.500 C 854.053 606.992, 862.576 586.059, 872.470 550.500 C 882.724 513.646, 887.005 481.095, 886.995 440.050 C 886.985 398.291, 882.582 366.833, 870.542 322.500 C 862.198 291.773, 843.910 250.932, 825.419 221.732 C 822.714 217.459, 819.574 212.251, 818.441 210.158 C 812.443 199.071, 786.451 166.696, 769.419 149.098 C 755.047 134.248, 742.548 123.011, 727 110.961 C 721.775 106.912, 716.679 102.837, 715.675 101.905 C 710.291 96.908, 677.449 76.259, 666.500 70.986 C 662.650 69.132, 658.316 66.809, 656.869 65.824 C 654.612 64.288, 649.068 61.704, 630 53.301 C 628.075 52.453, 624.925 50.969, 623 50.005 C 621.075 49.040, 617.925 47.922, 616 47.519 C 614.075 47.117, 609.560 45.512, 605.966 43.953 C 602.373 42.393, 598.159 40.887, 596.603 40.604 C 595.047 40.322, 589.808 38.719, 584.962 37.041 C 580.116 35.363, 574.879 33.895, 573.325 33.778 C 571.771 33.662, 569.375 32.992, 568 32.289 C 566.625 31.587, 564.095 31.010, 562.378 31.006 C 560.660 31.003, 555.935 29.922, 551.878 28.604 C 544.560 26.227, 534.535 24.531, 509.500 21.433 C 494.038 19.520, 451.389 18.742, 435.500 20.084 M 447 41.682 C 428.228 42.539, 396.019 47.098, 376.500 51.661 C 351.323 57.548, 317.971 68.184, 311.530 72.381 C 310.413 73.109, 306.587 74.735, 303.027 75.996 C 299.467 77.257, 292.042 80.776, 286.527 83.816 C 265.584 95.360, 247.318 106.002, 242.500 109.465 C 231.297 117.518, 214.956 129.828, 208.604 135 C 196.899 144.531, 155 187.114, 155 189.479 C 155 190.320, 149.728 197.398, 148.785 197.822 C 147.411 198.440, 138.366 210.554, 134.464 217 C 132.301 220.575, 129.068 225.525, 127.281 228 C 125.493 230.475, 122.617 235.200, 120.890 238.500 C 119.162 241.800, 115.828 247.676, 113.480 251.558 C 101.985 270.567, 87.482 305.961, 79.084 335.500 C 75.781 347.115, 69.059 381.903, 67.964 393.049 C 63.579 437.652, 65.304 479.870, 73.090 518.500 C 76.022 533.050, 82.115 557.104, 84.064 561.822 C 84.591 563.099, 87.553 570.974, 90.645 579.322 C 109.460 630.117, 137.128 673.800, 177.500 716.452 C 201.697 742.016, 238.757 770.971, 267.500 786.770 C 278.650 792.899, 312.227 809.103, 313.268 808.859 C 313.396 808.829, 315.975 809.892, 319 811.222 C 331.319 816.638, 364.284 826.608, 381 829.973 C 445.914 843.041, 508.159 841.362, 569.500 824.889 C 598.661 817.058, 631.668 803.991, 650 793.022 C 653.575 790.882, 660.171 787.190, 664.658 784.816 C 673.603 780.083, 676.411 778.329, 693.974 766.500 C 718.825 749.762, 749.216 722.251, 769.642 698 C 784.218 680.696, 799.123 659.736, 811.245 639.500 C 815.836 631.834, 830.695 601.641, 835.362 590.492 C 856.836 539.191, 867.261 477.532, 864.073 420.668 C 861.471 374.257, 853.234 336.018, 836.680 293.500 C 830.928 278.726, 821.258 258.095, 818.611 254.950 C 817.251 253.333, 815.830 251.038, 815.452 249.849 C 814.630 247.258, 805.040 231.137, 802.090 227.387 C 800.940 225.926, 800 224.199, 800 223.550 C 800 222.231, 789.451 206.973, 781.645 197 C 763.693 174.067, 732.934 142.486, 715.949 129.548 C 687.832 108.130, 669.629 96.621, 643 83.422 C 602.533 63.365, 564.332 51.611, 519.560 45.443 C 492.938 41.776, 470.471 40.611, 447 41.682 M 449.500 133.659 C 423.589 135.751, 405.126 138.677, 386.500 143.645 C 344.076 154.959, 307.637 173.330, 273 200.867 C 252.334 217.296, 219.299 253.143, 209.434 269.842 C 206.751 274.385, 208.135 274.966, 221.684 274.985 L 232.869 275 241.129 264.250 C 267 230.580, 309.030 197.915, 349 180.413 C 388.117 163.285, 423.175 156.003, 466.530 156.001 C 531.018 155.998, 593.676 178.293, 645 219.503 C 658.518 230.358, 679.849 251.999, 688.873 264.015 C 692.378 268.682, 695.753 272.786, 696.373 273.136 C 696.993 273.486, 703.013 273.960, 709.750 274.191 C 721.935 274.607, 722 274.597, 722 272.344 C 722 271.097, 721.184 269.273, 720.186 268.289 C 719.189 267.305, 715.962 263.125, 713.015 259 C 696.317 235.622, 666.655 206.931, 639.847 188.226 C 618.003 172.985, 578.911 153.136, 568.254 151.875 C 567.840 151.826, 565.859 150.949, 563.854 149.926 C 561.849 148.903, 556.674 147.131, 552.354 145.988 C 548.034 144.845, 541.350 143.051, 537.500 142 C 515.756 136.067, 471.561 131.878, 449.500 133.659 M 262.368 295.493 C 252.222 297.699, 244.998 303.397, 240.804 312.500 C 238.554 317.384, 238.493 318.350, 238.181 354 C 237.835 393.535, 238.312 399.057, 242.792 407.333 C 246.072 413.393, 249.415 416.225, 256.734 419.144 C 261.894 421.202, 264.183 421.447, 278.500 421.472 C 293.057 421.497, 295.041 421.285, 300.500 419.114 C 307.932 416.159, 314.106 410.051, 316.408 403.375 C 319.233 395.187, 320.295 372.518, 319.214 343.500 C 317.969 310.085, 316.717 306.225, 304.822 299.122 C 296.855 294.365, 275.822 292.567, 262.368 295.493 M 162.649 295.823 C 160.596 296.226, 160.579 297.284, 162.559 301.114 C 164.465 304.800, 177.684 336.383, 185.364 355.602 L 191 369.703 191 395.959 C 191 419.489, 191.164 422.151, 192.582 421.607 C 193.452 421.273, 196.827 421, 200.082 421 L 206 421 206 394.925 L 206 368.850 212.055 354.175 C 215.386 346.104, 219.030 337.498, 220.154 335.052 C 221.277 332.606, 225.110 323.381, 228.672 314.552 C 232.234 305.723, 235.388 297.938, 235.681 297.250 C 236.083 296.306, 234.139 296, 227.752 296 L 219.290 296 216.719 302.750 C 215.304 306.462, 212.834 312.650, 211.228 316.500 C 209.622 320.350, 206.332 329.239, 203.917 336.254 C 201.501 343.269, 199.077 348.859, 198.531 348.677 C 197.985 348.495, 194.320 339.831, 190.387 329.423 C 181.423 305.704, 178.225 297.825, 177.105 296.705 C 176.233 295.833, 165.833 295.199, 162.649 295.823 M 606.921 323.750 C 606.878 339.563, 606.765 367.800, 606.671 386.500 L 606.500 420.500 631.500 420.500 C 660.791 420.500, 664.764 419.715, 673.017 412.294 C 690.119 396.919, 687.773 363.577, 668.913 353.955 C 663.846 351.371, 663.610 350.713, 666.594 347.493 C 669.893 343.933, 671.015 340.959, 672.023 333.095 C 673.005 325.436, 671.984 318.272, 668.903 311.217 C 667.028 306.923, 665.480 305.246, 659.984 301.559 C 651.640 295.961, 646.425 295.018, 623.750 295.008 L 607 295 606.921 323.750 M 339.480 343.250 C 339.650 372.427, 340.165 392.224, 340.827 395.008 C 343.702 407.087, 348.442 413.615, 357.616 418.132 C 363.363 420.961, 365.348 421.388, 374.664 421.802 C 396.489 422.773, 408.296 416.865, 414.240 402 C 416.385 396.636, 416.448 395.259, 416.793 346.250 L 417.147 296 409.573 296 C 403.035 296, 401.997 296.239, 401.980 297.750 C 401.969 298.712, 401.978 319.125, 401.999 343.110 C 402.041 388.816, 401.625 394.292, 397.672 400.159 C 393.839 405.846, 389.718 407.504, 379.500 407.469 C 368.737 407.433, 364.092 406.008, 360.170 401.541 C 355.489 396.210, 355 390.449, 355 340.668 L 355 296 347.103 296 L 339.206 296 339.480 343.250 M 430.206 303.176 L 430.500 310.351 442.750 310.103 L 455 309.854 455.038 313.677 C 455.059 315.780, 455.043 337.823, 455.002 362.663 C 454.960 387.503, 455.230 410.790, 455.601 414.413 L 456.276 421 463.630 421 L 470.983 421 471.242 365.750 L 471.500 310.500 484.250 310.220 L 497 309.940 497 302.970 L 497 296 463.456 296 L 429.912 296 430.206 303.176 M 508.699 341.750 C 508.809 366.912, 509.156 389.975, 509.471 393 C 510.136 399.394, 513.964 408.270, 517.813 412.343 C 521.216 415.944, 527.965 419.364, 534.884 420.995 C 543.318 422.982, 562.243 421.875, 568.221 419.043 C 573.800 416.401, 579.475 410.440, 582.132 404.434 C 585.338 397.186, 585.937 387.249, 585.969 340.750 L 586 296 578.500 296 L 571 296 570.937 330.750 C 570.836 386.391, 570.337 394.337, 566.585 400.033 C 563.367 404.920, 552.031 408.632, 543.418 407.619 C 534.117 406.526, 529.693 404.049, 526.898 398.372 L 524.500 393.500 524.214 344.750 L 523.928 296 516.214 296 L 508.500 296 508.699 341.750 M 701.703 324.736 C 701.814 340.556, 701.927 368.693, 701.953 387.263 L 702 421.027 735.750 420.763 L 769.500 420.500 769.796 413.750 L 770.091 407 744.046 407 L 718 407 717.911 396.250 C 717.862 390.337, 717.749 380.100, 717.661 373.500 L 717.500 361.500 739 361 L 760.500 360.500 760.795 353.770 L 761.090 347.039 739.295 346.770 L 717.500 346.500 717.979 342 C 718.614 336.035, 718.625 320.753, 718 314.500 L 717.500 309.500 740.500 309.252 C 753.150 309.115, 763.984 308.822, 764.575 308.600 C 765.202 308.365, 765.577 305.760, 765.475 302.349 L 765.301 296.500 733.401 296.236 L 701.500 295.973 701.703 324.736 M 266.690 309.036 C 260.830 310.509, 259.287 311.655, 256.281 316.768 L 253.500 321.500 253.500 358.500 L 253.500 395.500 255.910 399.377 C 259.789 405.617, 265.102 407.485, 279 407.493 C 289.407 407.499, 290.928 407.262, 295 405 C 303.210 400.439, 303.450 399.309, 303.824 363.410 C 304.273 320.358, 303.319 314.956, 294.497 310.578 C 290.025 308.359, 273.116 307.421, 266.690 309.036 M 622.913 310.645 C 622.866 311.115, 622.637 319.121, 622.406 328.436 C 622.085 341.327, 622.285 345.563, 623.242 346.171 C 625.059 347.324, 636.064 347.180, 641.910 345.926 C 647.975 344.625, 651.408 342.081, 654.028 336.945 C 658.002 329.156, 655.657 317.194, 649.235 312.501 C 646.952 310.832, 644.559 310.442, 634.750 310.145 C 628.288 309.950, 622.961 310.174, 622.913 310.645 M 623.687 362.456 C 622.386 363.757, 622.239 367.003, 622.681 384.740 C 622.966 396.158, 623.306 405.614, 623.437 405.754 C 624.349 406.727, 651.245 406.078, 654.554 405.003 C 663.521 402.092, 667.668 396.362, 668.684 385.477 C 669.560 376.096, 667.471 371.257, 660.461 366.429 L 655.020 362.681 641.951 362.389 C 634.763 362.229, 628.056 361.835, 627.046 361.515 C 626.027 361.191, 624.533 361.610, 623.687 362.456 M 188.773 440.555 C 182.197 442.149, 174.270 445.931, 171.822 448.642 C 168.793 451.997, 164.219 462.382, 162.969 468.744 C 161.107 478.218, 162.092 489.257, 165.467 496.762 C 171.291 509.710, 182.511 515.793, 204.500 517.925 C 216.567 519.094, 220.121 520.092, 224.722 523.601 C 230.547 528.044, 232.328 533.545, 231.790 545.423 C 231.193 558.565, 228.837 563.070, 220.300 567.383 C 215.498 569.809, 200.650 569.589, 193.702 566.990 C 186.843 564.424, 184.276 561.630, 181.584 553.804 L 179.416 547.500 170.549 547.209 C 165.673 547.049, 161.279 547.321, 160.786 547.814 C 159.542 549.058, 162.423 560.927, 165.388 566.779 C 168.785 573.483, 176.385 580.252, 183.505 582.916 C 199.006 588.716, 221.136 587.669, 235.041 580.479 C 238.120 578.886, 243.878 572.222, 246.300 567.446 C 248.374 563.356, 251 549.155, 251 542.026 C 251 530.359, 246.909 517.690, 241.193 511.657 C 235.573 505.723, 224.535 502.112, 207 500.468 C 194.396 499.286, 185.692 495.126, 182.302 488.662 C 179.574 483.460, 180.202 473.083, 183.659 466.226 C 187.707 458.195, 189.651 457.101, 201.219 456.341 C 209.100 455.823, 211.780 456.026, 215.420 457.416 C 222.425 460.092, 226.356 465.283, 227.220 473 C 227.493 475.434, 227.736 475.508, 236.415 475.791 C 242.489 475.990, 245.564 475.705, 246.063 474.898 C 247.848 472.009, 243.990 457.603, 239.888 451.842 C 236.928 447.686, 229.847 443.344, 222.145 440.964 C 214.503 438.602, 197.678 438.396, 188.773 440.555 M 602.951 440.061 C 590.278 441.927, 580.578 448.026, 575.994 457.013 C 571.629 465.569, 571 472.728, 571 513.882 C 571 554.794, 571.522 561.178, 575.500 568.960 C 582.019 581.709, 593.187 586.299, 618 586.426 C 630.401 586.489, 633.540 586.173, 639.684 584.241 C 654.705 579.518, 660.453 571.666, 662.129 553.580 C 662.679 547.648, 662.987 542.677, 662.814 542.532 C 662.641 542.387, 658.845 542.030, 654.377 541.738 L 646.254 541.207 645.765 548.036 C 645.088 557.499, 641.874 563.739, 636 566.993 C 631.841 569.298, 630.514 569.485, 618.500 569.460 C 603.611 569.430, 598.097 567.754, 594.011 562.015 C 589.749 556.031, 589.073 549.134, 589.035 511.295 C 589.001 476.824, 589.049 475.956, 591.345 469.631 C 595.290 458.763, 600.814 455.863, 617.670 455.812 C 632.114 455.769, 639.686 458.891, 643.036 466.271 C 644.092 468.597, 644.973 472.300, 644.993 474.500 C 645.051 480.736, 645.649 481.128, 654.587 480.795 L 662.500 480.500 662.199 474 C 661.485 458.575, 655.492 447.611, 645.492 443.432 C 636.489 439.671, 616.410 438.079, 602.951 440.061 M 272.930 442.738 C 272.892 444.257, 272.922 476.767, 272.996 514.982 C 273.097 566.580, 273.431 584.648, 274.295 585.182 C 274.934 585.577, 292.342 585.811, 312.979 585.700 L 350.500 585.500 351 578.150 C 351.275 574.108, 351.253 570.403, 350.950 569.916 C 350.648 569.429, 336.923 568.911, 320.450 568.765 L 290.500 568.500 290.500 543.155 C 290.500 529.216, 290.867 517.584, 291.316 517.306 C 291.765 517.028, 302.888 516.866, 316.035 516.947 L 339.938 517.093 340.525 514.755 C 340.848 513.469, 340.974 509.735, 340.806 506.458 L 340.500 500.500 315.500 500 L 290.500 499.500 290.500 478.661 C 290.500 467.200, 290.725 457.456, 291 457.008 C 291.275 456.560, 303.650 456.034, 318.500 455.839 L 345.500 455.486 345.500 447.993 L 345.500 440.500 309.250 440.238 L 273 439.975 272.930 442.738 M 471.243 512.634 L 471.500 585.500 479.500 585.141 C 483.900 584.943, 487.705 584.588, 487.955 584.353 C 488.205 584.117, 488.281 572.241, 488.125 557.962 L 487.839 532 496.444 532 L 505.049 532 507.570 536.250 C 508.956 538.587, 514.426 548.600, 519.724 558.500 C 525.022 568.400, 530.544 578.524, 531.996 580.997 L 534.637 585.494 544.318 585.804 C 550.757 586.010, 554 585.753, 554 585.037 C 554 583.747, 536.882 553.086, 529.276 540.751 C 526.308 535.939, 524.159 531.552, 524.499 531.001 C 524.840 530.451, 526.104 529.988, 527.309 529.973 C 528.514 529.958, 532.644 527.821, 536.487 525.223 C 548.040 517.413, 551.019 508.829, 551.140 483 C 551.199 470.670, 549.733 462.975, 545.996 455.993 C 543.921 452.115, 537.509 446.862, 531 443.706 L 524.500 440.555 497.743 440.161 L 470.987 439.768 471.243 512.634 M 752.413 440.917 C 752.186 441.146, 752 456.333, 752 474.667 L 752 508 727.513 508 L 703.027 508 702.763 474.750 L 702.500 441.500 693.750 441.211 L 685 440.922 685 512.881 L 685 584.841 691.303 585.516 C 694.769 585.887, 698.707 586.035, 700.053 585.845 L 702.500 585.500 702.523 569.500 C 702.535 560.700, 702.648 547.087, 702.773 539.250 L 703 525 727.485 525 L 751.971 525 752.235 555.250 L 752.500 585.500 761 585.500 L 769.500 585.500 769.500 513.500 L 769.500 441.500 761.163 441 C 756.578 440.725, 752.640 440.688, 752.413 440.917 M 398.611 442.250 C 398.432 442.938, 397.565 445.975, 396.685 449 C 395.804 452.025, 393.087 461.925, 390.647 471 C 388.207 480.075, 385.907 488.625, 385.537 490 C 385.167 491.375, 383.975 495.650, 382.888 499.500 C 381.801 503.350, 379.787 511, 378.412 516.500 C 377.038 522, 372.780 537.989, 368.952 552.031 C 365.123 566.073, 361.880 579.348, 361.745 581.531 L 361.500 585.500 369 585.756 C 373.125 585.898, 377.080 585.635, 377.788 585.174 C 378.497 584.712, 380.456 579.197, 382.142 572.917 C 383.829 566.638, 385.545 560.887, 385.957 560.137 C 386.557 559.045, 390.941 558.808, 408.073 558.941 C 419.825 559.032, 429.599 559.266, 429.794 559.461 C 429.989 559.655, 431.577 565.369, 433.324 572.157 L 436.500 584.500 445.869 584.789 L 455.237 585.078 454.550 581.413 C 454.171 579.397, 452.824 574.092, 451.555 569.624 C 446.177 550.683, 441.413 533.245, 431.443 496 C 417.720 444.732, 418.304 446.935, 417.584 443.750 L 416.962 441 407.950 441 C 401.580 441, 398.842 441.367, 398.611 442.250 M 488.786 458.141 C 488.577 458.768, 488.556 471.464, 488.738 486.353 C 488.981 506.196, 489.395 513.631, 490.285 514.197 C 492.146 515.380, 513.979 515.133, 518.497 513.879 C 523.773 512.415, 530.469 505.684, 531.886 500.422 C 532.510 498.106, 532.835 490.580, 532.648 482.816 C 532.358 470.820, 532.059 468.832, 530.063 465.603 C 528.822 463.595, 526.445 461.247, 524.780 460.386 C 519.400 457.604, 489.585 455.744, 488.786 458.141 M 406.996 467.083 C 406.983 468.586, 398.362 508.479, 395.036 522.428 C 392.816 531.739, 391 539.952, 391 540.678 C 391 541.720, 394.490 542, 407.500 542 C 420.035 542, 423.999 541.700, 423.997 540.750 C 423.995 540.063, 422.611 533.875, 420.920 527 C 419.230 520.125, 416.295 506.850, 414.397 497.500 C 409.691 474.309, 408.250 467.917, 407.575 467.242 C 407.259 466.926, 406.998 466.854, 406.996 467.083 M 216.750 605.725 C 211.938 605.919, 208 606.409, 208 606.815 C 208 608.160, 217.169 622.450, 219.989 625.500 C 221.515 627.150, 223.887 630.318, 225.261 632.540 C 231.040 641.884, 260.445 670.147, 279.224 684.407 C 314.245 711, 357.215 730.964, 398.500 739.823 C 416.627 743.713, 423.593 744.749, 439.950 745.984 C 508.936 751.195, 573.600 734.927, 632 697.670 C 646.202 688.610, 665.001 673.643, 679.852 659.571 C 693.637 646.510, 722.999 610.312, 723 606.379 C 723 605.895, 717.130 605.571, 709.954 605.658 L 696.909 605.816 690.254 614.658 C 682.304 625.221, 653.677 654.220, 642.633 662.900 C 621.727 679.329, 594.557 694.852, 568.719 705.130 C 547.941 713.394, 518.117 720.641, 495.500 722.921 C 459.895 726.509, 437.203 724.953, 394.500 715.992 C 382.934 713.566, 358.932 704.635, 341 696.085 C 323.515 687.749, 305.344 676.537, 290.030 664.636 C 276.447 654.080, 252.355 630.204, 242.469 617.500 C 238.189 612, 234.420 607.209, 234.094 606.853 C 233.131 605.803, 226.118 605.347, 216.750 605.725" stroke="none" fill="#3e7eb9" fill-rule="evenodd"/><path d="M 0 449.001 L 0 898.002 469.250 897.751 L 938.500 897.500 938.751 448.750 L 939.002 -0 469.501 -0 L 0 0 0 449.001 M 0.496 449.500 C 0.496 696.450, 0.610 797.326, 0.750 673.668 C 0.890 550.011, 0.890 347.961, 0.750 224.668 C 0.610 101.376, 0.496 202.550, 0.496 449.500 M 435.500 20.084 C 429.450 20.595, 419.325 21.713, 413 22.568 C 406.675 23.423, 398.548 24.484, 394.941 24.925 C 374.111 27.471, 324.405 41.998, 301.500 52.233 C 296 54.691, 289.475 57.550, 287 58.586 C 281.116 61.049, 261.925 70.915, 260 72.466 C 259.175 73.131, 254.900 75.618, 250.500 77.992 C 246.100 80.367, 237.830 85.438, 232.123 89.262 C 219.362 97.813, 196 115.794, 196 117.066 C 196 117.580, 195.472 118, 194.828 118 C 193.001 118, 183.026 127.051, 165.624 144.500 C 146.474 163.701, 136.324 175.264, 126.127 189.500 C 123.369 193.350, 119.103 199.200, 116.647 202.500 C 114.191 205.800, 111.249 210.300, 110.110 212.500 C 108.970 214.700, 106.497 218.750, 104.614 221.500 C 99.486 228.988, 82.651 260.504, 79.509 268.500 C 77.996 272.350, 75.742 277.525, 74.500 280 C 72.163 284.657, 62.241 313.722, 57.601 329.500 C 53.225 344.382, 47.147 376.412, 45.267 394.500 C 42.809 418.147, 42.862 467.553, 45.367 488 C 47.418 504.740, 51.020 525.147, 54.458 539.500 C 57.199 550.942, 66.339 579.528, 72.203 595 C 83.576 625.007, 104.361 661.589, 127.882 693 C 132.618 699.325, 137.395 705.709, 138.497 707.186 C 139.598 708.663, 145.755 715.638, 152.177 722.686 C 169.371 741.555, 198.067 767.051, 217 780.283 C 222.225 783.934, 227.625 787.770, 229 788.806 C 236.678 794.591, 268.117 813.252, 277.109 817.362 C 280.074 818.718, 286.100 821.474, 290.500 823.488 C 345.810 848.808, 402.754 861, 465.697 861 C 526.626 861, 582.333 848.956, 640 823.316 C 657.299 815.624, 667.624 810.463, 673.500 806.569 C 676.250 804.746, 679.936 802.410, 681.692 801.378 C 699.059 791.161, 706.098 786.676, 708.577 784.247 C 710.184 782.672, 712.753 780.601, 714.284 779.646 C 721.621 775.069, 742.786 757.508, 754 746.692 C 788.003 713.895, 816.617 677.262, 834.604 643.500 C 854.053 606.992, 862.576 586.059, 872.470 550.500 C 882.724 513.646, 887.005 481.095, 886.995 440.050 C 886.985 398.291, 882.582 366.833, 870.542 322.500 C 862.198 291.773, 843.910 250.932, 825.419 221.732 C 822.714 217.459, 819.574 212.251, 818.441 210.158 C 812.443 199.071, 786.451 166.696, 769.419 149.098 C 755.047 134.248, 742.548 123.011, 727 110.961 C 721.775 106.912, 716.679 102.837, 715.675 101.905 C 710.291 96.908, 677.449 76.259, 666.500 70.986 C 662.650 69.132, 658.316 66.809, 656.869 65.824 C 654.612 64.288, 649.068 61.704, 630 53.301 C 628.075 52.453, 624.925 50.969, 623 50.005 C 621.075 49.040, 617.925 47.922, 616 47.519 C 614.075 47.117, 609.560 45.512, 605.966 43.953 C 602.373 42.393, 598.159 40.887, 596.603 40.604 C 595.047 40.322, 589.808 38.719, 584.962 37.041 C 580.116 35.363, 574.879 33.895, 573.325 33.778 C 571.771 33.662, 569.375 32.992, 568 32.289 C 566.625 31.587, 564.095 31.010, 562.378 31.006 C 560.660 31.003, 555.935 29.922, 551.878 28.604 C 544.560 26.227, 534.535 24.531, 509.500 21.433 C 494.038 19.520, 451.389 18.742, 435.500 20.084 M 447 41.682 C 428.228 42.539, 396.019 47.098, 376.500 51.661 C 351.323 57.548, 317.971 68.184, 311.530 72.381 C 310.413 73.109, 306.587 74.735, 303.027 75.996 C 299.467 77.257, 292.042 80.776, 286.527 83.816 C 265.584 95.360, 247.318 106.002, 242.500 109.465 C 231.297 117.518, 214.956 129.828, 208.604 135 C 196.899 144.531, 155 187.114, 155 189.479 C 155 190.320, 149.728 197.398, 148.785 197.822 C 147.411 198.440, 138.366 210.554, 134.464 217 C 132.301 220.575, 129.068 225.525, 127.281 228 C 125.493 230.475, 122.617 235.200, 120.890 238.500 C 119.162 241.800, 115.828 247.676, 113.480 251.558 C 101.985 270.567, 87.482 305.961, 79.084 335.500 C 75.781 347.115, 69.059 381.903, 67.964 393.049 C 63.579 437.652, 65.304 479.870, 73.090 518.500 C 76.022 533.050, 82.115 557.104, 84.064 561.822 C 84.591 563.099, 87.553 570.974, 90.645 579.322 C 109.460 630.117, 137.128 673.800, 177.500 716.452 C 201.697 742.016, 238.757 770.971, 267.500 786.770 C 278.650 792.899, 312.227 809.103, 313.268 808.859 C 313.396 808.829, 315.975 809.892, 319 811.222 C 331.319 816.638, 364.284 826.608, 381 829.973 C 445.914 843.041, 508.159 841.362, 569.500 824.889 C 598.661 817.058, 631.668 803.991, 650 793.022 C 653.575 790.882, 660.171 787.190, 664.658 784.816 C 673.603 780.083, 676.411 778.329, 693.974 766.500 C 718.825 749.762, 749.216 722.251, 769.642 698 C 784.218 680.696, 799.123 659.736, 811.245 639.500 C 815.836 631.834, 830.695 601.641, 835.362 590.492 C 856.836 539.191, 867.261 477.532, 864.073 420.668 C 861.471 374.257, 853.234 336.018, 836.680 293.500 C 830.928 278.726, 821.258 258.095, 818.611 254.950 C 817.251 253.333, 815.830 251.038, 815.452 249.849 C 814.630 247.258, 805.040 231.137, 802.090 227.387 C 800.940 225.926, 800 224.199, 800 223.550 C 800 222.231, 789.451 206.973, 781.645 197 C 763.693 174.067, 732.934 142.486, 715.949 129.548 C 687.832 108.130, 669.629 96.621, 643 83.422 C 602.533 63.365, 564.332 51.611, 519.560 45.443 C 492.938 41.776, 470.471 40.611, 447 41.682 M 449.500 133.659 C 423.589 135.751, 405.126 138.677, 386.500 143.645 C 344.076 154.959, 307.637 173.330, 273 200.867 C 252.334 217.296, 219.299 253.143, 209.434 269.842 C 206.751 274.385, 208.135 274.966, 221.684 274.985 L 232.869 275 241.129 264.250 C 267 230.580, 309.030 197.915, 349 180.413 C 388.117 163.285, 423.175 156.003, 466.530 156.001 C 531.018 155.998, 593.676 178.293, 645 219.503 C 658.518 230.358, 679.849 251.999, 688.873 264.015 C 692.378 268.682, 695.753 272.786, 696.373 273.136 C 696.993 273.486, 703.013 273.960, 709.750 274.191 C 721.935 274.607, 722 274.597, 722 272.344 C 722 271.097, 721.184 269.273, 720.186 268.289 C 719.189 267.305, 715.962 263.125, 713.015 259 C 696.317 235.622, 666.655 206.931, 639.847 188.226 C 618.003 172.985, 578.911 153.136, 568.254 151.875 C 567.840 151.826, 565.859 150.949, 563.854 149.926 C 561.849 148.903, 556.674 147.131, 552.354 145.988 C 548.034 144.845, 541.350 143.051, 537.500 142 C 515.756 136.067, 471.561 131.878, 449.500 133.659 M 262.368 295.493 C 252.222 297.699, 244.998 303.397, 240.804 312.500 C 238.554 317.384, 238.493 318.350, 238.181 354 C 237.835 393.535, 238.312 399.057, 242.792 407.333 C 246.072 413.393, 249.415 416.225, 256.734 419.144 C 261.894 421.202, 264.183 421.447, 278.500 421.472 C 293.057 421.497, 295.041 421.285, 300.500 419.114 C 307.932 416.159, 314.106 410.051, 316.408 403.375 C 319.233 395.187, 320.295 372.518, 319.214 343.500 C 317.969 310.085, 316.717 306.225, 304.822 299.122 C 296.855 294.365, 275.822 292.567, 262.368 295.493 M 162.649 295.823 C 160.596 296.226, 160.579 297.284, 162.559 301.114 C 164.465 304.800, 177.684 336.383, 185.364 355.602 L 191 369.703 191 395.959 C 191 419.489, 191.164 422.151, 192.582 421.607 C 193.452 421.273, 196.827 421, 200.082 421 L 206 421 206 394.925 L 206 368.850 212.055 354.175 C 215.386 346.104, 219.030 337.498, 220.154 335.052 C 221.277 332.606, 225.110 323.381, 228.672 314.552 C 232.234 305.723, 235.388 297.938, 235.681 297.250 C 236.083 296.306, 234.139 296, 227.752 296 L 219.290 296 216.719 302.750 C 215.304 306.462, 212.834 312.650, 211.228 316.500 C 209.622 320.350, 206.332 329.239, 203.917 336.254 C 201.501 343.269, 199.077 348.859, 198.531 348.677 C 197.985 348.495, 194.320 339.831, 190.387 329.423 C 181.423 305.704, 178.225 297.825, 177.105 296.705 C 176.233 295.833, 165.833 295.199, 162.649 295.823 M 606.921 323.750 C 606.878 339.563, 606.765 367.800, 606.671 386.500 L 606.500 420.500 631.500 420.500 C 660.791 420.500, 664.764 419.715, 673.017 412.294 C 690.119 396.919, 687.773 363.577, 668.913 353.955 C 663.846 351.371, 663.610 350.713, 666.594 347.493 C 669.893 343.933, 671.015 340.959, 672.023 333.095 C 673.005 325.436, 671.984 318.272, 668.903 311.217 C 667.028 306.923, 665.480 305.246, 659.984 301.559 C 651.640 295.961, 646.425 295.018, 623.750 295.008 L 607 295 606.921 323.750 M 339.480 343.250 C 339.650 372.427, 340.165 392.224, 340.827 395.008 C 343.702 407.087, 348.442 413.615, 357.616 418.132 C 363.363 420.961, 365.348 421.388, 374.664 421.802 C 396.489 422.773, 408.296 416.865, 414.240 402 C 416.385 396.636, 416.448 395.259, 416.793 346.250 L 417.147 296 409.573 296 C 403.035 296, 401.997 296.239, 401.980 297.750 C 401.969 298.712, 401.978 319.125, 401.999 343.110 C 402.041 388.816, 401.625 394.292, 397.672 400.159 C 393.839 405.846, 389.718 407.504, 379.500 407.469 C 368.737 407.433, 364.092 406.008, 360.170 401.541 C 355.489 396.210, 355 390.449, 355 340.668 L 355 296 347.103 296 L 339.206 296 339.480 343.250 M 430.206 303.176 L 430.500 310.351 442.750 310.103 L 455 309.854 455.038 313.677 C 455.059 315.780, 455.043 337.823, 455.002 362.663 C 454.960 387.503, 455.230 410.790, 455.601 414.413 L 456.276 421 463.630 421 L 470.983 421 471.242 365.750 L 471.500 310.500 484.250 310.220 L 497 309.940 497 302.970 L 497 296 463.456 296 L 429.912 296 430.206 303.176 M 508.699 341.750 C 508.809 366.912, 509.156 389.975, 509.471 393 C 510.136 399.394, 513.964 408.270, 517.813 412.343 C 521.216 415.944, 527.965 419.364, 534.884 420.995 C 543.318 422.982, 562.243 421.875, 568.221 419.043 C 573.800 416.401, 579.475 410.440, 582.132 404.434 C 585.338 397.186, 585.937 387.249, 585.969 340.750 L 586 296 578.500 296 L 571 296 570.937 330.750 C 570.836 386.391, 570.337 394.337, 566.585 400.033 C 563.367 404.920, 552.031 408.632, 543.418 407.619 C 534.117 406.526, 529.693 404.049, 526.898 398.372 L 524.500 393.500 524.214 344.750 L 523.928 296 516.214 296 L 508.500 296 508.699 341.750 M 701.703 324.736 C 701.814 340.556, 701.927 368.693, 701.953 387.263 L 702 421.027 735.750 420.763 L 769.500 420.500 769.796 413.750 L 770.091 407 744.046 407 L 718 407 717.911 396.250 C 717.862 390.337, 717.749 380.100, 717.661 373.500 L 717.500 361.500 739 361 L 760.500 360.500 760.795 353.770 L 761.090 347.039 739.295 346.770 L 717.500 346.500 717.979 342 C 718.614 336.035, 718.625 320.753, 718 314.500 L 717.500 309.500 740.500 309.252 C 753.150 309.115, 763.984 308.822, 764.575 308.600 C 765.202 308.365, 765.577 305.760, 765.475 302.349 L 765.301 296.500 733.401 296.236 L 701.500 295.973 701.703 324.736 M 266.690 309.036 C 260.830 310.509, 259.287 311.655, 256.281 316.768 L 253.500 321.500 253.500 358.500 L 253.500 395.500 255.910 399.377 C 259.789 405.617, 265.102 407.485, 279 407.493 C 289.407 407.499, 290.928 407.262, 295 405 C 303.210 400.439, 303.450 399.309, 303.824 363.410 C 304.273 320.358, 303.319 314.956, 294.497 310.578 C 290.025 308.359, 273.116 307.421, 266.690 309.036 M 622.913 310.645 C 622.866 311.115, 622.637 319.121, 622.406 328.436 C 622.085 341.327, 622.285 345.563, 623.242 346.171 C 625.059 347.324, 636.064 347.180, 641.910 345.926 C 647.975 344.625, 651.408 342.081, 654.028 336.945 C 658.002 329.156, 655.657 317.194, 649.235 312.501 C 646.952 310.832, 644.559 310.442, 634.750 310.145 C 628.288 309.950, 622.961 310.174, 622.913 310.645 M 623.687 362.456 C 622.386 363.757, 622.239 367.003, 622.681 384.740 C 622.966 396.158, 623.306 405.614, 623.437 405.754 C 624.349 406.727, 651.245 406.078, 654.554 405.003 C 663.521 402.092, 667.668 396.362, 668.684 385.477 C 669.560 376.096, 667.471 371.257, 660.461 366.429 L 655.020 362.681 641.951 362.389 C 634.763 362.229, 628.056 361.835, 627.046 361.515 C 626.027 361.191, 624.533 361.610, 623.687 362.456 M 188.773 440.555 C 182.197 442.149, 174.270 445.931, 171.822 448.642 C 168.793 451.997, 164.219 462.382, 162.969 468.744 C 161.107 478.218, 162.092 489.257, 165.467 496.762 C 171.291 509.710, 182.511 515.793, 204.500 517.925 C 216.567 519.094, 220.121 520.092, 224.722 523.601 C 230.547 528.044, 232.328 533.545, 231.790 545.423 C 231.193 558.565, 228.837 563.070, 220.300 567.383 C 215.498 569.809, 200.650 569.589, 193.702 566.990 C 186.843 564.424, 184.276 561.630, 181.584 553.804 L 179.416 547.500 170.549 547.209 C 165.673 547.049, 161.279 547.321, 160.786 547.814 C 159.542 549.058, 162.423 560.927, 165.388 566.779 C 168.785 573.483, 176.385 580.252, 183.505 582.916 C 199.006 588.716, 221.136 587.669, 235.041 580.479 C 238.120 578.886, 243.878 572.222, 246.300 567.446 C 248.374 563.356, 251 549.155, 251 542.026 C 251 530.359, 246.909 517.690, 241.193 511.657 C 235.573 505.723, 224.535 502.112, 207 500.468 C 194.396 499.286, 185.692 495.126, 182.302 488.662 C 179.574 483.460, 180.202 473.083, 183.659 466.226 C 187.707 458.195, 189.651 457.101, 201.219 456.341 C 209.100 455.823, 211.780 456.026, 215.420 457.416 C 222.425 460.092, 226.356 465.283, 227.220 473 C 227.493 475.434, 227.736 475.508, 236.415 475.791 C 242.489 475.990, 245.564 475.705, 246.063 474.898 C 247.848 472.009, 243.990 457.603, 239.888 451.842 C 236.928 447.686, 229.847 443.344, 222.145 440.964 C 214.503 438.602, 197.678 438.396, 188.773 440.555 M 602.951 440.061 C 590.278 441.927, 580.578 448.026, 575.994 457.013 C 571.629 465.569, 571 472.728, 571 513.882 C 571 554.794, 571.522 561.178, 575.500 568.960 C 582.019 581.709, 593.187 586.299, 618 586.426 C 630.401 586.489, 633.540 586.173, 639.684 584.241 C 654.705 579.518, 660.453 571.666, 662.129 553.580 C 662.679 547.648, 662.987 542.677, 662.814 542.532 C 662.641 542.387, 658.845 542.030, 654.377 541.738 L 646.254 541.207 645.765 548.036 C 645.088 557.499, 641.874 563.739, 636 566.993 C 631.841 569.298, 630.514 569.485, 618.500 569.460 C 603.611 569.430, 598.097 567.754, 594.011 562.015 C 589.749 556.031, 589.073 549.134, 589.035 511.295 C 589.001 476.824, 589.049 475.956, 591.345 469.631 C 595.290 458.763, 600.814 455.863, 617.670 455.812 C 632.114 455.769, 639.686 458.891, 643.036 466.271 C 644.092 468.597, 644.973 472.300, 644.993 474.500 C 645.051 480.736, 645.649 481.128, 654.587 480.795 L 662.500 480.500 662.199 474 C 661.485 458.575, 655.492 447.611, 645.492 443.432 C 636.489 439.671, 616.410 438.079, 602.951 440.061 M 272.930 442.738 C 272.892 444.257, 272.922 476.767, 272.996 514.982 C 273.097 566.580, 273.431 584.648, 274.295 585.182 C 274.934 585.577, 292.342 585.811, 312.979 585.700 L 350.500 585.500 351 578.150 C 351.275 574.108, 351.253 570.403, 350.950 569.916 C 350.648 569.429, 336.923 568.911, 320.450 568.765 L 290.500 568.500 290.500 543.155 C 290.500 529.216, 290.867 517.584, 291.316 517.306 C 291.765 517.028, 302.888 516.866, 316.035 516.947 L 339.938 517.093 340.525 514.755 C 340.848 513.469, 340.974 509.735, 340.806 506.458 L 340.500 500.500 315.500 500 L 290.500 499.500 290.500 478.661 C 290.500 467.200, 290.725 457.456, 291 457.008 C 291.275 456.560, 303.650 456.034, 318.500 455.839 L 345.500 455.486 345.500 447.993 L 345.500 440.500 309.250 440.238 L 273 439.975 272.930 442.738 M 471.243 512.634 L 471.500 585.500 479.500 585.141 C 483.900 584.943, 487.705 584.588, 487.955 584.353 C 488.205 584.117, 488.281 572.241, 488.125 557.962 L 487.839 532 496.444 532 L 505.049 532 507.570 536.250 C 508.956 538.587, 514.426 548.600, 519.724 558.500 C 525.022 568.400, 530.544 578.524, 531.996 580.997 L 534.637 585.494 544.318 585.804 C 550.757 586.010, 554 585.753, 554 585.037 C 554 583.747, 536.882 553.086, 529.276 540.751 C 526.308 535.939, 524.159 531.552, 524.499 531.001 C 524.840 530.451, 526.104 529.988, 527.309 529.973 C 528.514 529.958, 532.644 527.821, 536.487 525.223 C 548.040 517.413, 551.019 508.829, 551.140 483 C 551.199 470.670, 549.733 462.975, 545.996 455.993 C 543.921 452.115, 537.509 446.862, 531 443.706 L 524.500 440.555 497.743 440.161 L 470.987 439.768 471.243 512.634 M 752.413 440.917 C 752.186 441.146, 752 456.333, 752 474.667 L 752 508 727.513 508 L 703.027 508 702.763 474.750 L 702.500 441.500 693.750 441.211 L 685 440.922 685 512.881 L 685 584.841 691.303 585.516 C 694.769 585.887, 698.707 586.035, 700.053 585.845 L 702.500 585.500 702.523 569.500 C 702.535 560.700, 702.648 547.087, 702.773 539.250 L 703 525 727.485 525 L 751.971 525 752.235 555.250 L 752.500 585.500 761 585.500 L 769.500 585.500 769.500 513.500 L 769.500 441.500 761.163 441 C 756.578 440.725, 752.640 440.688, 752.413 440.917 M 398.611 442.250 C 398.432 442.938, 397.565 445.975, 396.685 449 C 395.804 452.025, 393.087 461.925, 390.647 471 C 388.207 480.075, 385.907 488.625, 385.537 490 C 385.167 491.375, 383.975 495.650, 382.888 499.500 C 381.801 503.350, 379.787 511, 378.412 516.500 C 377.038 522, 372.780 537.989, 368.952 552.031 C 365.123 566.073, 361.880 579.348, 361.745 581.531 L 361.500 585.500 369 585.756 C 373.125 585.898, 377.080 585.635, 377.788 585.174 C 378.497 584.712, 380.456 579.197, 382.142 572.917 C 383.829 566.638, 385.545 560.887, 385.957 560.137 C 386.557 559.045, 390.941 558.808, 408.073 558.941 C 419.825 559.032, 429.599 559.266, 429.794 559.461 C 429.989 559.655, 431.577 565.369, 433.324 572.157 L 436.500 584.500 445.869 584.789 L 455.237 585.078 454.550 581.413 C 454.171 579.397, 452.824 574.092, 451.555 569.624 C 446.177 550.683, 441.413 533.245, 431.443 496 C 417.720 444.732, 418.304 446.935, 417.584 443.750 L 416.962 441 407.950 441 C 401.580 441, 398.842 441.367, 398.611 442.250 M 488.786 458.141 C 488.577 458.768, 488.556 471.464, 488.738 486.353 C 488.981 506.196, 489.395 513.631, 490.285 514.197 C 492.146 515.380, 513.979 515.133, 518.497 513.879 C 523.773 512.415, 530.469 505.684, 531.886 500.422 C 532.510 498.106, 532.835 490.580, 532.648 482.816 C 532.358 470.820, 532.059 468.832, 530.063 465.603 C 528.822 463.595, 526.445 461.247, 524.780 460.386 C 519.400 457.604, 489.585 455.744, 488.786 458.141 M 406.996 467.083 C 406.983 468.586, 398.362 508.479, 395.036 522.428 C 392.816 531.739, 391 539.952, 391 540.678 C 391 541.720, 394.490 542, 407.500 542 C 420.035 542, 423.999 541.700, 423.997 540.750 C 423.995 540.063, 422.611 533.875, 420.920 527 C 419.230 520.125, 416.295 506.850, 414.397 497.500 C 409.691 474.309, 408.250 467.917, 407.575 467.242 C 407.259 466.926, 406.998 466.854, 406.996 467.083 M 216.750 605.725 C 211.938 605.919, 208 606.409, 208 606.815 C 208 608.160, 217.169 622.450, 219.989 625.500 C 221.515 627.150, 223.887 630.318, 225.261 632.540 C 231.040 641.884, 260.445 670.147, 279.224 684.407 C 314.245 711, 357.215 730.964, 398.500 739.823 C 416.627 743.713, 423.593 744.749, 439.950 745.984 C 508.936 751.195, 573.600 734.927, 632 697.670 C 646.202 688.610, 665.001 673.643, 679.852 659.571 C 693.637 646.510, 722.999 610.312, 723 606.379 C 723 605.895, 717.130 605.571, 709.954 605.658 L 696.909 605.816 690.254 614.658 C 682.304 625.221, 653.677 654.220, 642.633 662.900 C 621.727 679.329, 594.557 694.852, 568.719 705.130 C 547.941 713.394, 518.117 720.641, 495.500 722.921 C 459.895 726.509, 437.203 724.953, 394.500 715.992 C 382.934 713.566, 358.932 704.635, 341 696.085 C 323.515 687.749, 305.344 676.537, 290.030 664.636 C 276.447 654.080, 252.355 630.204, 242.469 617.500 C 238.189 612, 234.420 607.209, 234.094 606.853 C 233.131 605.803, 226.118 605.347, 216.750 605.725" stroke="none" fill="#fafbfb" fill-rule="evenodd"/></svg>